<?xml version="1.0" encoding="utf-8"?>
<!-- Generator: Adobe Illustrator 21.1.0, SVG Export Plug-In . SVG Version: 6.00 Build 0)  -->
<svg version="1.1" xmlns="http://www.w3.org/2000/svg" xmlns:xlink="http://www.w3.org/1999/xlink" x="0px" y="0px"
	 viewBox="0 0 200 200" style="enable-background:new 0 0 200 200;" xml:space="preserve">
<style type="text/css">
	.st0{display:none;}
	.st1{display:inline;}
	.st2{fill:none;stroke:#000000;stroke-linecap:round;stroke-linejoin:round;stroke-miterlimit:10;}
	.st3{fill:none;stroke:#000000;stroke-width:4.625;stroke-linecap:round;stroke-linejoin:round;stroke-miterlimit:10;}
	.st4{display:inline;fill:#41638E;}
	.st5{display:inline;fill:#A9887D;}
	.st6{display:inline;fill:#E63634;}
	.st7{display:inline;fill:#79C47E;}
	.st8{display:inline;fill:#4888C8;}
	.st9{display:inline;fill:#FDD20A;}
	.st10{display:inline;fill:#3D62AE;}
	.st11{display:inline;fill:#EF452B;}
	.st12{display:inline;fill:#C76893;}
	.st13{display:inline;fill:#C74F49;}
	.st14{display:inline;fill:#E1C8E1;}
	.st15{display:inline;fill:#F6D7E7;}
	.st16{display:inline;fill:#C4AEA9;}
	.st17{display:inline;fill:#F8E7B7;}
	.st18{display:inline;fill:#D9E699;}
	.st19{display:inline;fill:#583919;}
	.st20{display:inline;fill:#F4EB23;}
	.st21{display:inline;fill:#70C059;}
	.st22{fill:none;stroke:#E63634;stroke-width:4.625;stroke-miterlimit:10;}
	.st23{fill:#E63634;}
	.st24{fill:#F4EB23;}
	.st25{fill:none;stroke:#F4EB23;stroke-width:4.625;stroke-miterlimit:10;}
	.st26{fill:#D9E699;}
	.st27{fill:none;stroke:#D9E699;stroke-width:4.625;stroke-miterlimit:10;}
	.st28{fill:#41638E;}
	.st29{fill:#A9887D;}
	.st30{fill:#79C47E;}
	.st31{fill:#4888C8;}
	.st32{fill:#FDD20A;}
	.st33{fill:#3D62AE;}
	.st34{fill:#EF452B;}
	.st35{fill:#C76893;}
	.st36{fill:#C74F49;}
	.st37{fill:#E1C8E1;}
	.st38{fill:#F6D7E7;}
	.st39{fill:#C4AEA9;}
	.st40{fill:#F8E7B7;}
	.st41{fill:#583919;}
	.st42{fill:#70C059;}
	.st43{fill:none;stroke:#3D62AE;stroke-width:4.625;stroke-miterlimit:10;}
	.st44{fill:none;stroke:#E1C8E1;stroke-width:4.625;stroke-miterlimit:10;}
	.st45{fill:none;stroke:#70C059;stroke-width:4.625;stroke-miterlimit:10;}
</style>
<g id="Layer_1" class="st0">
	<path class="st1" d="M44.4,199.7c-22.9-2.5-41.5-21-44.1-43.9c-1.8-15.9,3.9-30.5,13.9-40.8c8.3-8.5,8.3-21.6,0-30.1
		C4.2,74.7-1.5,60.1,0.3,44.2C2.9,21.3,21.6,2.8,44.4,0.3C60.2-1.4,74.7,4.3,85,14.2c8.5,8.3,21.6,8.3,30.1,0
		c10.3-10,24.8-15.7,40.6-13.9c22.9,2.5,41.5,21.1,44,44c1.7,15.8-3.9,30.4-13.9,40.6c-8.3,8.5-8.3,21.6,0,30.1
		c10,10.3,15.7,24.8,13.9,40.6c-2.5,22.9-21.1,41.5-44,44c-15.8,1.7-30.4-3.9-40.6-13.9c-8.5-8.3-21.6-8.3-30.1,0
		C74.7,195.7,60.2,201.4,44.4,199.7z"/>
</g>
<g id="colours_1">
	<path class="st23" d="M44.4,199.7c-22.9-2.5-41.5-21-44.1-43.9c-1.8-15.9,3.9-30.5,13.9-40.8c8.3-8.5,8.3-21.6,0-30.1
		C4.2,74.7-1.5,60.1,0.3,44.2C2.9,21.3,21.6,2.8,44.4,0.3C60.2-1.4,74.7,4.3,85,14.2c8.5,8.3,21.6,8.3,30.1,0
		c10.3-10,24.8-15.7,40.6-13.9c22.9,2.5,41.5,21.1,44,44c1.7,15.8-3.9,30.4-13.9,40.6c-8.3,8.5-8.3,21.6,0,30.1
		c10,10.3,15.7,24.8,13.9,40.6c-2.5,22.9-21.1,41.5-44,44c-15.8,1.7-30.4-3.9-40.6-13.9c-8.5-8.3-21.6-8.3-30.1,0
		C74.7,195.7,60.2,201.4,44.4,199.7z"/>
</g>
<g id="colours_2" class="st0">
	<path class="st10" d="M44.4,199.7c-22.9-2.5-41.5-21-44.1-43.9c-1.8-15.9,3.9-30.5,13.9-40.8c8.3-8.5,8.3-21.6,0-30.1
		C4.2,74.7-1.5,60.1,0.3,44.2C2.9,21.3,21.6,2.8,44.4,0.3C60.2-1.4,74.7,4.3,85,14.2c8.5,8.3,21.6,8.3,30.1,0
		c10.3-10,24.8-15.7,40.6-13.9c22.9,2.5,41.5,21.1,44,44c1.7,15.8-3.9,30.4-13.9,40.6c-8.3,8.5-8.3,21.6,0,30.1
		c10,10.3,15.7,24.8,13.9,40.6c-2.5,22.9-21.1,41.5-44,44c-15.8,1.7-30.4-3.9-40.6-13.9c-8.5-8.3-21.6-8.3-30.1,0
		C74.7,195.7,60.2,201.4,44.4,199.7z"/>
</g>
</svg>
