<?xml version="1.0" encoding="utf-8"?>
<!-- Generator: Adobe Illustrator 21.1.0, SVG Export Plug-In . SVG Version: 6.00 Build 0)  -->
<svg version="1.1" xmlns="http://www.w3.org/2000/svg" xmlns:xlink="http://www.w3.org/1999/xlink" x="0px" y="0px"
	 viewBox="0 0 200 200" style="enable-background:new 0 0 200 200;" xml:space="preserve">
<style type="text/css">
	.st0{display:none;}
	.st1{display:inline;}
	.st2{fill:none;stroke:#000000;stroke-linecap:round;stroke-linejoin:round;stroke-miterlimit:10;}
	.st3{fill:none;stroke:#000000;stroke-width:4.625;stroke-linecap:round;stroke-linejoin:round;stroke-miterlimit:10;}
	.st4{display:inline;fill:#41638E;}
	.st5{display:inline;fill:#A9887D;}
	.st6{display:inline;fill:#E63634;}
	.st7{display:inline;fill:#79C47E;}
	.st8{display:inline;fill:#4888C8;}
	.st9{display:inline;fill:#FDD20A;}
	.st10{display:inline;fill:#3D62AE;}
	.st11{display:inline;fill:#EF452B;}
	.st12{display:inline;fill:#C76893;}
	.st13{display:inline;fill:#C74F49;}
	.st14{display:inline;fill:#E1C8E1;}
	.st15{display:inline;fill:#F6D7E7;}
	.st16{display:inline;fill:#C4AEA9;}
	.st17{display:inline;fill:#F8E7B7;}
	.st18{display:inline;fill:#D9E699;}
	.st19{display:inline;fill:#583919;}
	.st20{display:inline;fill:#F4EB23;}
	.st21{display:inline;fill:#70C059;}
	.st22{fill:none;stroke:#E63634;stroke-width:4.625;stroke-miterlimit:10;}
	.st23{fill:#E63634;}
	.st24{fill:#F4EB23;}
	.st25{fill:none;stroke:#F4EB23;stroke-width:4.625;stroke-miterlimit:10;}
	.st26{fill:#D9E699;}
	.st27{fill:none;stroke:#D9E699;stroke-width:4.625;stroke-miterlimit:10;}
	.st28{fill:#41638E;}
	.st29{fill:#A9887D;}
	.st30{fill:#79C47E;}
	.st31{fill:#4888C8;}
	.st32{fill:#FDD20A;}
	.st33{fill:#3D62AE;}
	.st34{fill:#EF452B;}
	.st35{fill:#C76893;}
	.st36{fill:#C74F49;}
	.st37{fill:#E1C8E1;}
	.st38{fill:#F6D7E7;}
	.st39{fill:#C4AEA9;}
	.st40{fill:#F8E7B7;}
	.st41{fill:#583919;}
	.st42{fill:#70C059;}
	.st43{fill:none;stroke:#3D62AE;stroke-width:4.625;stroke-miterlimit:10;}
	.st44{fill:none;stroke:#E1C8E1;stroke-width:4.625;stroke-miterlimit:10;}
	.st45{fill:none;stroke:#70C059;stroke-width:4.625;stroke-miterlimit:10;}
</style>
<g id="Layer_1" class="st0">
	<polygon class="st1" points="100,49.6 113.2,0 113.1,51.3 138.6,6.8 125.2,56.3 161.4,20 135.7,64.3 180,38.6 143.7,74.8 
		193.2,61.4 148.7,86.9 200,86.8 150.4,100 200,113.2 148.7,113.1 193.2,138.6 143.7,125.2 180,161.4 135.7,135.7 161.4,180 
		125.2,143.7 138.6,193.2 113.1,148.7 113.2,200 100,150.4 86.8,200 86.9,148.7 61.4,193.2 74.8,143.7 38.6,180 64.3,135.7 
		20,161.4 56.3,125.2 6.8,138.6 51.3,113.1 0,113.2 49.6,100 0,86.8 51.3,86.9 6.8,61.4 56.3,74.8 20,38.6 64.3,64.3 38.6,20 
		74.8,56.3 61.4,6.8 86.9,51.3 86.8,0 	"/>
</g>
<g id="colours_1">
	<polygon class="st23" points="100,49.6 113.2,0 113.1,51.3 138.6,6.8 125.2,56.3 161.4,20 135.7,64.3 180,38.6 143.7,74.8 
		193.2,61.4 148.7,86.9 200,86.8 150.4,100 200,113.2 148.7,113.1 193.2,138.6 143.7,125.2 180,161.4 135.7,135.7 161.4,180 
		125.2,143.7 138.6,193.2 113.1,148.7 113.2,200 100,150.4 86.8,200 86.9,148.7 61.4,193.2 74.8,143.7 38.6,180 64.3,135.7 
		20,161.4 56.3,125.2 6.8,138.6 51.3,113.1 0,113.2 49.6,100 0,86.8 51.3,86.9 6.8,61.4 56.3,74.8 20,38.6 64.3,64.3 38.6,20 
		74.8,56.3 61.4,6.8 86.9,51.3 86.8,0 	"/>
</g>
<g id="colours_2" class="st0">
	<polygon class="st10" points="100,49.6 113.2,0 113.1,51.3 138.6,6.8 125.2,56.3 161.4,20 135.7,64.3 180,38.6 143.7,74.8 
		193.2,61.4 148.7,86.9 200,86.8 150.4,100 200,113.2 148.7,113.1 193.2,138.6 143.7,125.2 180,161.4 135.7,135.7 161.4,180 
		125.2,143.7 138.6,193.2 113.1,148.7 113.2,200 100,150.4 86.8,200 86.9,148.7 61.4,193.2 74.8,143.7 38.6,180 64.3,135.7 
		20,161.4 56.3,125.2 6.8,138.6 51.3,113.1 0,113.2 49.6,100 0,86.8 51.3,86.9 6.8,61.4 56.3,74.8 20,38.6 64.3,64.3 38.6,20 
		74.8,56.3 61.4,6.8 86.9,51.3 86.8,0 	"/>
</g>
</svg>
