<?xml version="1.0" encoding="utf-8"?>
<!-- Generator: Adobe Illustrator 21.1.0, SVG Export Plug-In . SVG Version: 6.00 Build 0)  -->
<svg version="1.1" xmlns="http://www.w3.org/2000/svg" xmlns:xlink="http://www.w3.org/1999/xlink" x="0px" y="0px"
	 viewBox="0 0 200 200" style="enable-background:new 0 0 200 200;" xml:space="preserve">
<style type="text/css">
	.st0{display:none;}
	.st1{display:inline;}
	.st2{fill:none;stroke:#000000;stroke-linecap:round;stroke-linejoin:round;stroke-miterlimit:10;}
	.st3{fill:none;stroke:#000000;stroke-width:4.625;stroke-linecap:round;stroke-linejoin:round;stroke-miterlimit:10;}
	.st4{display:inline;fill:#41638E;}
	.st5{display:inline;fill:#A9887D;}
	.st6{display:inline;fill:#E63634;}
	.st7{display:inline;fill:#79C47E;}
	.st8{display:inline;fill:#4888C8;}
	.st9{display:inline;fill:#FDD20A;}
	.st10{display:inline;fill:#3D62AE;}
	.st11{display:inline;fill:#EF452B;}
	.st12{display:inline;fill:#C76893;}
	.st13{display:inline;fill:#C74F49;}
	.st14{display:inline;fill:#E1C8E1;}
	.st15{display:inline;fill:#F6D7E7;}
	.st16{display:inline;fill:#C4AEA9;}
	.st17{display:inline;fill:#F8E7B7;}
	.st18{display:inline;fill:#D9E699;}
	.st19{display:inline;fill:#583919;}
	.st20{display:inline;fill:#F4EB23;}
	.st21{display:inline;fill:#70C059;}
	.st22{fill:none;stroke:#E63634;stroke-width:4.625;stroke-miterlimit:10;}
	.st23{fill:#E63634;}
	.st24{fill:#F4EB23;}
	.st25{fill:none;stroke:#F4EB23;stroke-width:4.625;stroke-miterlimit:10;}
	.st26{fill:#D9E699;}
	.st27{fill:none;stroke:#D9E699;stroke-width:4.625;stroke-miterlimit:10;}
	.st28{fill:#41638E;}
	.st29{fill:#A9887D;}
	.st30{fill:#79C47E;}
	.st31{fill:#4888C8;}
	.st32{fill:#FDD20A;}
	.st33{fill:#3D62AE;}
	.st34{fill:#EF452B;}
	.st35{fill:#C76893;}
	.st36{fill:#C74F49;}
	.st37{fill:#E1C8E1;}
	.st38{fill:#F6D7E7;}
	.st39{fill:#C4AEA9;}
	.st40{fill:#F8E7B7;}
	.st41{fill:#583919;}
	.st42{fill:#70C059;}
	.st43{fill:none;stroke:#3D62AE;stroke-width:4.625;stroke-miterlimit:10;}
	.st44{fill:none;stroke:#E1C8E1;stroke-width:4.625;stroke-miterlimit:10;}
	.st45{fill:none;stroke:#70C059;stroke-width:4.625;stroke-miterlimit:10;}
</style>
<g id="Layer_1" class="st0">
	<path class="st1" d="M49.2,198c-25.8-0.6-47.5-22.1-48.2-48c-0.8-28,21.6-51,49.5-51C22.6,99,0.1,76,1,48C1.7,22.1,23.3,0.7,49.2,0
		c28-0.7,50.8,21.7,50.8,49.5C100,21.7,123-0.8,150.9,0c25.8,0.7,47.4,22.3,48.1,48.1c0.8,28-21.7,50.9-49.5,50.9
		c27.8,0,50.3,22.9,49.5,50.9c-0.7,25.8-22.3,47.4-48.1,48.1c-28,0.8-50.9-21.7-50.9-49.5C100,176.3,77.2,198.7,49.2,198z"/>
</g>
<g id="colours_1">
	<path class="st23" d="M49.2,198c-25.8-0.6-47.5-22.1-48.2-48c-0.8-28,21.6-51,49.5-51C22.6,99,0.1,76,1,48
		C1.7,22.1,23.3,0.7,49.2,0c28-0.7,50.8,21.7,50.8,49.5C100,21.7,123-0.8,150.9,0c25.8,0.7,47.4,22.3,48.1,48.1
		c0.8,28-21.7,50.9-49.5,50.9c27.8,0,50.3,22.9,49.5,50.9c-0.7,25.8-22.3,47.4-48.1,48.1c-28,0.8-50.9-21.7-50.9-49.5
		C100,176.3,77.2,198.7,49.2,198z"/>
</g>
<g id="colours_2" class="st0">
	<path class="st10" d="M49.2,198c-25.8-0.6-47.5-22.1-48.2-48c-0.8-28,21.6-51,49.5-51C22.6,99,0.1,76,1,48
		C1.7,22.1,23.3,0.7,49.2,0c28-0.7,50.8,21.7,50.8,49.5C100,21.7,123-0.8,150.9,0c25.8,0.7,47.4,22.3,48.1,48.1
		c0.8,28-21.7,50.9-49.5,50.9c27.8,0,50.3,22.9,49.5,50.9c-0.7,25.8-22.3,47.4-48.1,48.1c-28,0.8-50.9-21.7-50.9-49.5
		C100,176.3,77.2,198.7,49.2,198z"/>
</g>
</svg>
